<svg xmlns="http://www.w3.org/2000/svg" viewBox="0 0 762.42 675.91"><defs><style>.cls-1{fill:#94e8ff;}.cls-2{fill:#ff7fd2;}.cls-3{fill:#c0272d;}.cls-4{fill:#fbed21;}.cls-5{fill:#f1f1f1;}.cls-6{fill:#faaf3b;}.cls-7{fill:#662d90;}.cls-8{fill:#a57c52;}.cls-9{fill:#2e3191;}.cls-10{fill:none;stroke:#2c2c2e;stroke-linecap:round;stroke-linejoin:round;stroke-width:47.96px;}.cls-11{fill:#2c2c2e;}</style></defs><g id="Layer_2" data-name="Layer 2"><g id="inside"><path class="cls-1" d="M639.58,207c.77,9.64-6.36,9.77-6.15,13,.9,13.59,10.52,16.11,10.52,16.11V366.48H593.79V236.1s10.72-3.34,13.07-16.87c.43-2.45-5.18-1.26-5.18-12.2C601.68,203.47,639.26,203,639.58,207Z"/><ellipse class="cls-2" cx="654.65" cy="355.41" rx="38.08" ry="62.94" transform="translate(-90 374.94) rotate(-30)"/><path class="cls-3" d="M557,371.73c-5.93-64.93,45.47-35.85,45.47-35.85S648,312.61,648,371.73a45.47,45.47,0,0,1-45.47,45.47C577.37,417.2,559.3,396.74,557,371.73Z"/><path class="cls-4" d="M695.39,323.76c13,22.42-11.14,60.56-53.8,85.19s-87.74,26.42-100.68,4,37.66-14.64,80.32-39.27S682.45,301.34,695.39,323.76Z"/><path class="cls-5" d="M362,436l.69-181.29c0-21.59,45.34-83.82,50.6-83.82s50.59,68.71,50.59,83.82V436"/><polygon class="cls-6" points="548.39 411.23 462.38 411.23 433.06 303.4 582.48 303.4 548.39 411.23"/><circle class="cls-7" cx="447.64" cy="392.03" r="12.52"/><circle class="cls-7" cx="432.81" cy="403.23" r="12.52"/><circle class="cls-7" cx="463.92" cy="401.3" r="13.26"/><circle class="cls-7" cx="469.73" cy="385.77" r="14.04"/><circle class="cls-7" cx="493.72" cy="376.71" r="14.05"/><ellipse class="cls-7" cx="489.64" cy="398.01" rx="15.86" ry="14.5"/><circle class="cls-7" cx="511.28" cy="379.77" r="10.99"/><circle class="cls-7" cx="506.81" cy="388.89" r="9.12"/><ellipse class="cls-7" cx="512.31" cy="402.27" rx="14.04" ry="10.24"/><ellipse class="cls-7" cx="526.35" cy="390.76" rx="14.44" ry="12.46"/><path class="cls-8" d="M296.53,271.4c79.51-45.91,117-50.35,126.23-34.42s-13.41,46.2-92.92,92.11-131,58.43-140.22,42.49S217,317.3,296.53,271.4Z"/><rect class="cls-9" x="186.03" y="329.39" width="206.4" height="93.4" rx="23.52"/></g><g id="Shopping_cart_dark" data-name="Shopping cart dark"><path class="cls-10" d="M24,24s114.66-4,124.74,102.16c4.58,48.23.31,77,1.38,112.68,3.2,107,13,178.91,40.57,217,50.2,69.33,105,48.7,526.22,47.73"/><line class="cls-10" x1="737.69" y1="271.48" x2="157.63" y2="271.48"/><line class="cls-10" x1="351.35" y1="125.33" x2="351.35" y2="417.2"/><line class="cls-10" x1="551.08" y1="129.6" x2="551.08" y2="420.34"/><circle class="cls-11" cx="306.46" cy="610.32" r="65.59"/><circle class="cls-11" cx="637.49" cy="610.32" r="65.59"/><path class="cls-10" d="M147.27,115.37h583a8.15,8.15,0,0,1,8.15,8.14V248.7c0,146.19-80.15,179-179,178.9H296.91C205.73,427.6,159,380.89,159,289.71"/></g></g></svg>